<?xml version="1.0" encoding="utf-8"?>
<!-- Generator: Adobe Illustrator 19.2.0, SVG Export Plug-In . SVG Version: 6.00 Build 0)  -->
<svg version="1.1" id="Capa_1" xmlns="http://www.w3.org/2000/svg" xmlns:xlink="http://www.w3.org/1999/xlink" x="0px" y="0px"
	 viewBox="0 0 470.1 470.1" style="enable-background:new 0 0 470.1 470.1;" xml:space="preserve">
<style type="text/css">
	.st0{fill:#FFD200;}
</style>
<g>
	<path class="st0" d="M220.6,353.8l-16,16L100.2,265.5l16-16c2.9-2.9,2.9-7.7,0-10.6c-2.9-2.9-7.7-2.9-10.6,0l-43,43
		c-21.9,21.9-30.6,52-25.4,87.1c2.8,18.5,8.7,33.7,12,41.2L31,428.5c-2.9,2.9-2.9,7.7,0,10.6c1.5,1.5,3.4,2.2,5.3,2.2
		s3.8-0.7,5.3-2.2l18.2-18.2c7.5,3.3,22.7,9.2,41.2,12c6.6,1,13.1,1.5,19.3,1.5c26.9,0,50.1-9.1,67.8-26.9l43-43
		c2.9-2.9,2.9-7.7,0-10.6C228.2,350.9,223.5,350.9,220.6,353.8z M103.6,418.1c-18.9-2.8-34.3-9.3-39.8-11.9
		c-2.5-5.5-9.1-20.9-11.9-39.8c-2-13.9-1.7-26.6,1.1-38l88.6,88.6C130.2,419.7,117.5,420.1,103.6,418.1z M177.5,396.9
		c-6.1,6.1-12.8,10.9-20.2,14.5l-98.6-98.6c3.6-7.4,8.5-14.2,14.5-20.2l16.4-16.4L194,380.4L177.5,396.9z"/>
	<path class="st0" d="M155.8,232.2c-2.9-2.9-7.7-2.9-10.6,0c-2.9,2.9-2.9,7.7,0,10.6l82,82c1.5,1.5,3.4,2.2,5.3,2.2s3.8-0.7,5.3-2.2
		c2.9-2.9,2.9-7.7,0-10.6L155.8,232.2z"/>
	<path class="st0" d="M254.8,260.5c1.9,0,3.8-0.7,5.3-2.2c2.9-2.9,2.9-7.7,0-10.6l-37.7-37.7c-2.9-2.9-7.7-2.9-10.6,0
		c-2.9,2.9-2.9,7.7,0,10.6l37.7,37.7C251,259.7,252.9,260.5,254.8,260.5z"/>
	<path class="st0" d="M463,353.9c-4.2-9.5-10.2-18.3-17.3-25.5l-89.6-89.6c9.7-12.1,15-27,15-42.7c0-3.7-0.3-7.4-0.9-11
		c5.7,2.9,12.1,4.4,18.6,4.4c11.1,0,21.6-4.3,29.5-12.2c16.3-16.3,16.3-42.7,0-58.9l-12.7-12.7l21.6-21.6c2.9-2.9,2.9-7.7,0-10.6
		c-2.9-2.9-7.7-2.9-10.6,0L395,95.1L374.9,75l21.6-21.6c2.9-2.9,2.9-7.7,0-10.6c-2.9-2.9-7.7-2.9-10.6,0l-21.6,21.6l-12.7-12.7
		c-7.9-7.9-18.3-12.2-29.5-12.2c-11.1,0-21.6,4.3-29.5,12.2S280.4,70,280.4,81.2c0,6.6,1.5,12.9,4.4,18.6c-3.6-0.6-7.3-0.9-11-0.9
		c-15.7,0-30.6,5.3-42.7,15l-89.6-89.6c-7.2-7.2-16-13.2-25.5-17.3c-10.6-4.7-21.8-7-33.3-7C50,0,20.2,19.5,7,49.6
		C-1.9,69.8-2.3,92.3,5.7,113c8,20.6,23.6,36.9,43.9,45.8c0.5,0.2,1.1,0.5,1.6,0.7c1,33.1,27.4,60.6,61.1,62.5
		c1.2,0.1,2.3,0.1,3.5,0.1c6.9,0,13.7-1.1,20.4-3.4l136.7-45.8c2.8-0.4,5.2-2.3,6.1-5.1c1-2.7,0.3-5.7-1.8-7.8l-35.3-35.3
		c9.2-6.9,20.3-10.7,32-10.7c14.2,0,27.6,5.5,37.7,15.6l29,29c10.1,10.1,15.6,23.4,15.6,37.7c0,11.7-3.8,22.8-10.7,32l-35.3-35.3
		c-2.1-2.1-5.1-2.7-7.8-1.8c-2.7,0.9-4.7,3.3-5.1,6.1l-45.8,136.7c-2.6,7.7-3.7,15.8-3.3,23.9c1.8,33.6,29.1,60.1,62.5,61.1
		c0.2,0.5,0.5,1.1,0.7,1.6c13.2,30.1,43,49.5,75.9,49.5c11.5,0,22.7-2.4,33.3-7c20.3-8.9,35.8-25.1,43.9-45.8
		C472.4,396.6,471.9,374.1,463,353.9z M19.7,107.5c-6.6-16.9-6.2-35.3,1.1-51.9C31.6,31,56,15,82.9,15c9.4,0,18.6,1.9,27.2,5.7
		c7.8,3.4,15,8.3,20.9,14.2l121.8,121.8l-192.4-9.9c-1.7-0.6-3.3-1.2-4.8-1.9C39,137.7,26.3,124.4,19.7,107.5z M131.4,204.4
		c-6,2-12,2.8-18.3,2.5c-24.8-1.3-44.3-20.7-46.7-44.7l165.6,8.5L131.4,204.4z M407.8,129.1c5,5,7.8,11.7,7.8,18.9
		c0,7.1-2.8,13.8-7.8,18.9s-11.7,7.8-18.9,7.8s-13.8-2.8-18.9-7.8l-12.7-12.7l37.7-37.7L407.8,129.1z M384.4,105.7l-37.7,37.7
		l-20.1-20.1l37.7-37.7L384.4,105.7z M303.2,62.3c5-5,11.7-7.8,18.9-7.8s13.8,2.8,18.9,7.8L353.7,75L316,112.8L303.2,100
		c-5-5-7.8-11.7-7.8-18.9S298.2,67.3,303.2,62.3z M450.4,411.8c-6.6,16.9-19.3,30.2-35.9,37.5c-8.7,3.8-17.8,5.7-27.2,5.7
		c-26.9,0-51.3-15.9-62.2-40.6c-0.7-1.5-1.3-3.1-1.9-4.8l-4.6-90.3c-0.2-4.1-3.7-7.3-7.9-7.1c-4.1,0.2-7.3,3.7-7.1,7.9l4.3,83.5
		c-24.1-2.3-43.4-22-44.7-46.7c-0.3-6.3,0.5-12.2,2.5-18.3l33.7-100.6l2.7,52.1c0.2,4,3.5,7.1,7.5,7.1c0.1,0,0.3,0,0.4,0
		c4.1-0.2,7.3-3.7,7.1-7.9l-3.7-72.1L435.1,339c5.9,5.9,10.8,13.1,14.2,20.9C456.6,376.5,457,394.9,450.4,411.8z"/>
</g>
</svg>
