<?xml version="1.0" encoding="utf-8"?>
<!-- Generator: Adobe Illustrator 19.2.0, SVG Export Plug-In . SVG Version: 6.00 Build 0)  -->
<svg version="1.1" id="Layer_1" xmlns="http://www.w3.org/2000/svg" xmlns:xlink="http://www.w3.org/1999/xlink" x="0px" y="0px"
	 viewBox="0 0 100 100" style="enable-background:new 0 0 100 100;" xml:space="preserve">
<style type="text/css">
	.st0{fill:#FFD200;}
</style>
<g>
	<g>
		<path class="st0" d="M55.3,14.4c0-2.3,1-8.4,1.9-8.9c1.4-0.7,2.4,0.8,2.3,1.7c-0.2,1.3-1.6,0.9-2.1,1.7c-1.3,4.6-1.1,9.9,1.4,13.2
			c1.4,1.8,4.7,4.3,6.8,4.1c1.1-0.1,2.4-1.4,3.3-1.9c9.2-4.4,19.3,2.3,23.7,7.4c2.9,3.3,5.7,8.7,5.6,14.4c-0.2,7.9-5.8,13-13.2,13.2
			c-6.7,0.2-12.1-3.3-16.1-7.2c-4-4-7.4-9.7-7.2-16.1c0.1-3.7,1.4-6,2.9-8.7c-10.3,1.5-14.5-5.4-16.1-13c-0.3-1.4-1-3.3,0-4.5
			c1.1-0.3,1.6,0,2.3,0.6c0.5,1.9-1,1.8-1.2,2.9c1.3,7.5,4.5,13.1,13.2,13.2C59,24.6,55.4,20.6,55.3,14.4z M78.6,30.5
			c-2.3-0.5-3.4,0.6-3.5,2.5c-0.2,4.1,6.9,4.4,5.8-0.6C80.8,31.7,80.1,30.7,78.6,30.5z"/>
		<path class="st0" d="M25.8,13.1C36,13.9,43.2,21.2,47.5,28c1.4,2.2,2.8,4.6,3.3,7c-7.2-12.3-31.8-16.5-46-7.2
			C8.1,19.9,15,12.3,25.8,13.1z"/>
		<path class="st0" d="M1.7,45.3c0.9-11.6,10.5-19,22.7-19c11.9,0.1,20.2,6.2,27.2,12c0,0.3,0.9,0.7,0,0.6
			c-11.1-3.1-21.3,2.6-27.8,9.1C17.7,54,12.5,61.1,12.4,71.5C6.5,66.1,0.9,55.9,1.7,45.3z"/>
		<path class="st0" d="M57.8,43.4c1.7,6,5.1,10.3,9.3,13.8c0,2.6,0,5-0.8,6.8c-7.3-5.3-13.5-13-18.8-20.2c-0.3-0.4-1.4-1.1-0.6-1.2
			C50.4,41.6,54.9,42.5,57.8,43.4z"/>
		<path class="st0" d="M63.2,72.3c-0.8,2-2,3.6-3.3,5.2C48.6,70,39.9,60,32.2,49c2.3-1.7,4.6-3.2,7.4-4.3
			C44.2,57.2,53.2,65.2,63.2,72.3z"/>
		<path class="st0" d="M54.5,83.5c-2.1,1.5-4.2,3.1-6.4,4.5C36.9,81.2,29,71.2,21.5,60.8c1.8-2.5,3.4-5.3,5.8-7.2
			C32.6,67.3,42.6,76.3,54.5,83.5z"/>
		<path class="st0" d="M38.2,91.7c-2.7,0.5-6.4,0.6-9.1,0c-1.9-4.3-5-7.6-8.3-10.3c-1.2-1-2.4-1.8-3.5-2.9c-0.4-2.9-0.3-6.9,0.8-8.9
			C23,78.8,30.2,85.6,38.2,91.7z"/>
		<path class="st0" d="M24.4,91.9c-2-1.3-5.4-1.4-7.8-1.2c1.4-1.9,0.2-6,0-7.4C19.5,85.8,22.3,88.5,24.4,91.9z"/>
	</g>
</g>
</svg>
