<svg xmlns="http://www.w3.org/2000/svg" xmlns:xlink="http://www.w3.org/1999/xlink" version="1.1" x="0px" y="0px" viewBox="0 0 100 100" enable-background="new 0 0 100 100" xml:space="preserve"><g><g><path fill-rule="evenodd" clip-rule="evenodd" d="M37.094,26.532c8.682-0.118,11.859-5.741,13.2-13.2    c-0.266-1.109-1.714-1.036-1.237-2.887c0.682-0.602,1.151-0.876,2.269-0.619c1.038,1.202,0.298,3.145,0,4.537    c-1.634,7.623-5.793,14.504-16.088,12.994c1.448,2.671,2.802,4.979,2.888,8.662c0.149,6.431-3.228,12.097-7.219,16.087    c-3.96,3.96-9.394,7.381-16.087,7.219c-7.438-0.18-13.041-5.266-13.2-13.2C1.504,40.382,4.31,35.018,7.188,31.688    c4.428-5.124,14.506-11.797,23.719-7.425c0.897,0.426,2.227,1.771,3.3,1.856c2.058,0.164,5.426-2.358,6.806-4.125    c2.578-3.301,2.743-8.61,1.444-13.2c-0.501-0.764-1.864-0.376-2.063-1.65c-0.132-0.846,0.897-2.354,2.269-1.65    c0.895,0.459,1.869,6.592,1.856,8.869C44.484,20.581,40.839,24.587,37.094,26.532z M18.944,32.307    c-1.15,4.996,6.015,4.675,5.775,0.619c-0.109-1.847-1.178-2.952-3.506-2.475C19.771,30.746,19.083,31.698,18.944,32.307z"></path><path fill-rule="evenodd" clip-rule="evenodd" d="M95.05,27.769c-14.16-9.307-38.764-5.076-45.994,7.219    c0.499-2.403,1.872-4.779,3.299-7.012c4.317-6.751,11.514-14.115,21.656-14.85C84.864,12.339,91.754,19.855,95.05,27.769z"></path><path fill-rule="evenodd" clip-rule="evenodd" d="M87.418,71.494c-0.114-10.389-5.282-17.452-11.344-23.513    c-6.513-6.513-16.751-12.137-27.843-9.075c-0.87,0.035,0.003-0.317,0-0.619c7.003-5.714,15.332-11.902,27.225-11.962    c12.203-0.063,21.792,7.351,22.688,18.975C98.962,55.93,93.342,66.142,87.418,71.494z"></path><path fill-rule="evenodd" clip-rule="evenodd" d="M52.975,42.619c0.771,0.125-0.314,0.821-0.619,1.237    c-5.28,7.235-11.419,14.906-18.768,20.213c-0.777-1.768-0.838-4.25-0.825-6.807c4.137-3.563,7.602-7.798,9.281-13.818    C44.964,42.516,49.413,41.621,52.975,42.619z"></path><path fill-rule="evenodd" clip-rule="evenodd" d="M60.193,44.682c2.78,1.139,5.157,2.68,7.425,4.331    c-7.716,10.983-16.427,20.973-27.637,28.463c-1.271-1.548-2.507-3.131-3.3-5.156C46.61,65.198,55.675,57.213,60.193,44.682z"></path><path fill-rule="evenodd" clip-rule="evenodd" d="M72.568,53.551c2.364,1.966,3.934,4.729,5.775,7.218    c-7.53,10.414-15.438,20.449-26.606,27.226c-2.238-1.406-4.26-3.027-6.394-4.538C57.194,76.264,67.255,67.281,72.568,53.551z"></path><path fill-rule="evenodd" clip-rule="evenodd" d="M81.644,69.638c1.15,1.996,1.231,5.982,0.825,8.869    c-1.061,1.136-2.343,1.897-3.507,2.887c-3.222,2.74-6.344,5.979-8.25,10.313c-2.721,0.574-6.337,0.52-9.075,0    C69.601,85.645,76.797,78.816,81.644,69.638z"></path><path fill-rule="evenodd" clip-rule="evenodd" d="M83.293,83.25c-0.2,1.473-1.36,5.563,0,7.425    c-2.467-0.196-5.818-0.074-7.837,1.237C77.57,88.527,80.372,85.829,83.293,83.25z"></path></g></g></svg>